<?xml version="1.0" encoding="utf-8"?>
<!-- Generator: Adobe Illustrator 20.1.0, SVG Export Plug-In . SVG Version: 6.00 Build 0)  -->
<svg version="1.1" id="圖層_1" xmlns="http://www.w3.org/2000/svg" xmlns:xlink="http://www.w3.org/1999/xlink" x="0px" y="0px"
	 viewBox="0 0 120 120" style="enable-background:new 0 0 120 120;" xml:space="preserve">
<style type="text/css">
	.st0{fill:#040000;}
	.st1{fill:#FFFFFF;}
</style>
<g>
	<path class="st0" d="M30.7,70.9c-0.1,0-0.1,0-0.2,0l-8.1-1.3c-0.7-0.1-1.2-0.8-1.1-1.5c0.1-0.7,0.8-1.2,1.5-1.1l8.1,1.3
		c0.7,0.1,1.2,0.8,1.1,1.5C31.9,70.4,31.4,70.9,30.7,70.9z"/>
	<path class="st0" d="M20.1,76.8c-0.5,0-1-0.3-1.2-0.9c-0.2-0.7,0.1-1.4,0.8-1.6l10.5-3.4c0.7-0.2,1.4,0.1,1.6,0.8
		c0.2,0.7-0.1,1.4-0.8,1.6l-10.5,3.4C20.3,76.8,20.2,76.8,20.1,76.8z"/>
	<path class="st0" d="M90.6,70c-0.6,0-1.1-0.4-1.2-1c-0.2-0.7,0.2-1.4,0.9-1.6l9-2.3c0.7-0.2,1.4,0.2,1.6,0.9
		c0.2,0.7-0.2,1.4-0.9,1.6l-9,2.3C90.8,70,90.7,70,90.6,70z"/>
	<path class="st0" d="M99.5,75.5c-0.1,0-0.2,0-0.2,0l-9-1.7c-0.7-0.1-1.2-0.8-1-1.5c0.1-0.7,0.8-1.1,1.5-1l9,1.7
		c0.7,0.1,1.2,0.8,1,1.5C100.7,75.1,100.1,75.5,99.5,75.5z"/>
	<path class="st0" d="M53.4,39.3c0,0-5.5-8.9-11-14.3s-10.1,5.2-10.1,12.6s0,13.8,0,13.8S41.5,40,53.4,39.3z"/>
	<path class="st1" d="M47.8,39.2l-6.3-7.7c0,0-3.8-6.6-4.9,3.4c-0.8,7.2,0,10.6,0,12C36.7,47,43.4,40.9,47.8,39.2z"/>
	<path class="st0" d="M71,40.2l7.8-11.9c0,0,7-9.2,11.7,1.1c4.7,10.3,1.8,26.5,1.8,26.5S84,42.5,71,40.2z"/>
	<path class="st1" d="M77,41.5l4.7-8.5c0,0,4.4-6.6,5.6,0.5s1.1,13.8,0.5,16.7C87.7,50.2,80.5,42.5,77,41.5z"/>
	<path class="st0" d="M61.3,104c-14.3,0-24.7-3.3-31-9.9c-5.3-5.5-7.8-13.4-7.4-23.5c0.4-9.1,4.8-17.4,12.7-24.1
		c6-5,11.8-7.3,12-7.4l0.2-0.1c13.5-3.2,25.2-1.5,34.9,5.2c11.7,8,17.2,21.5,18.4,30.5c0.9,6.5-0.9,12.5-5.1,17.4
		C89.2,99.7,76.9,104,61.3,104z M48.4,41.5c-1.4,0.6-22.2,9.5-23,29.2C25,80,27.3,87.3,32.1,92.3c5.8,6.1,15.6,9.1,29.2,9.1
		c14.8,0,26.4-3.9,32.6-11c3.7-4.3,5.3-9.6,4.5-15.3c-1.1-8.5-6.3-21.2-17.3-28.7C72.2,40.1,61.2,38.5,48.4,41.5z"/>
	<circle class="st0" cx="46.8" cy="59.9" r="2.8"/>
	<circle class="st0" cx="73.8" cy="59.9" r="2.8"/>
	<ellipse class="st0" cx="60.2" cy="60" rx="3" ry="1.9"/>
	<path class="st0" d="M56.3,78c-2,0-3.7-0.8-4.5-1.5c-0.5-0.5-0.6-1.3-0.1-1.8c0.5-0.5,1.3-0.6,1.8-0.1c0.1,0.1,2.3,1.8,5.4,0.2
		V61.9c0-0.7,0.6-1.3,1.3-1.3s1.3,0.6,1.3,1.3v13.6c0,0.4-0.2,0.8-0.6,1.1C59.3,77.7,57.7,78,56.3,78z"/>
	<path class="st0" d="M63.9,78.6c-1.6,0-3.2-0.7-4.6-2.2c-0.5-0.5-0.5-1.3,0-1.8c0.5-0.5,1.3-0.5,1.8,0c1,1,1.9,1.4,2.9,1.4
		c1.6-0.1,2.7-1.3,2.7-1.3c0.5-0.5,1.3-0.6,1.8-0.1c0.5,0.5,0.6,1.3,0.1,1.8c-0.1,0.1-1.9,2.1-4.6,2.2C64.1,78.6,64,78.6,63.9,78.6z
		"/>
	<path class="st0" d="M30.7,53.2c0,0,17,1.1,22.7-13.9C53.4,39.3,40.7,40.7,30.7,53.2z"/>
	<path class="st0" d="M68.7,39.7c0,0,7.4,14.2,20.9,12.7C89.6,52.4,78.5,40.5,68.7,39.7z"/>
	<path class="st0" d="M58,21.6c0,0-1.9-3.1-3.9-5c-2-1.9-3.6,1.8-3.6,4.4s0,4.9,0,4.9S53.8,21.8,58,21.6z"/>
	<path class="st1" d="M56.1,21.6l-2.2-2.7c0,0-1.4-2.3-1.7,1.2c-0.3,2.6,0,3.8,0,4.3C52.1,24.3,54.5,22.2,56.1,21.6z"/>
	<path class="st0" d="M64.2,21.9l2.7-4.2c0,0,2.5-3.2,4.1,0.4c1.7,3.6,0.6,9.4,0.6,9.4S68.8,22.7,64.2,21.9z"/>
	<path class="st1" d="M66.4,22.4l1.7-3c0,0,1.5-2.3,2,0.2s0.4,4.9,0.2,5.9C70.1,25.4,67.6,22.7,66.4,22.4z"/>
	<path class="st0" d="M74.4,35.4c-0.6,0-1.2-0.5-1.3-1.1c-0.4-2.8-2.1-7.1-5.8-9.6c-3-2-6.6-2.6-10.8-1.6c-0.8,0.3-7.3,3.3-7.6,9.5
		c0,0.7-0.6,1.2-1.3,1.2c-0.7,0-1.3-0.6-1.2-1.3c0.3-8.3,8.9-11.7,9.3-11.9c0.1,0,0.1,0,0.2-0.1c4.9-1.2,9.4-0.5,13,2
		c4.3,3,6.4,8,6.8,11.3c0.1,0.7-0.4,1.3-1.1,1.4C74.5,35.4,74.4,35.4,74.4,35.4z"/>
	<path class="st0" d="M50,27.4c0,0,5.9,0.4,7.8-4.8C57.8,22.6,53.4,23.1,50,27.4z"/>
	<path class="st0" d="M63.1,22.8c0,0,2.6,4.9,7.2,4.4C70.3,27.1,66.4,23,63.1,22.8z"/>
	<circle class="st0" cx="55.1" cy="29" r="1.2"/>
	<circle class="st0" cx="66.3" cy="29" r="1.2"/>
	<ellipse class="st0" cx="60.6" cy="29" rx="1.3" ry="0.8"/>
	<path class="st0" d="M59.4,34.7c-0.9,0-1.5-0.5-1.6-0.5c-0.3-0.2-0.3-0.6-0.1-0.9c0.2-0.3,0.6-0.3,0.9-0.1c0.1,0.1,0.6,0.4,1.3,0.1
		v-3.9c0-0.4,0.3-0.6,0.6-0.6c0.4,0,0.6,0.3,0.6,0.6v4.3c0,0.2-0.1,0.4-0.3,0.5C60.4,34.6,59.9,34.7,59.4,34.7z"/>
	<path class="st0" d="M61.8,34.9c-0.4,0-1-0.1-1.6-0.7c-0.3-0.3-0.3-0.7,0-0.9c0.3-0.2,0.7-0.3,0.9,0c0.3,0.3,0.5,0.4,0.7,0.4
		c0.4,0,0.7-0.3,0.7-0.3c0.2-0.3,0.6-0.3,0.9,0c0.3,0.2,0.3,0.6,0.1,0.9C63.4,34.2,62.8,34.9,61.8,34.9
		C61.9,34.9,61.8,34.9,61.8,34.9z"/>
	<path class="st0" d="M56.6,38.9c-0.3,0-0.5-0.2-0.6-0.4c-0.5-1.3-1.2-2.1-2-2.4c-1.5-0.5-3.1,0.3-3.1,0.3c-0.3,0.2-0.7,0.1-0.9-0.2
		c-0.2-0.3-0.1-0.7,0.2-0.9c0.1,0,2.1-1.2,4.2-0.4c1.3,0.5,2.2,1.5,2.8,3.2c0.1,0.3,0,0.7-0.4,0.8C56.8,38.8,56.7,38.9,56.6,38.9z"
		/>
	<path class="st0" d="M66.7,39.4c-0.1,0-0.2,0-0.3-0.1c-0.3-0.2-0.5-0.5-0.3-0.9c1-2.1,4-5.4,8.5-3.4c0.3,0.1,0.5,0.5,0.3,0.8
		c-0.1,0.3-0.5,0.5-0.8,0.3c-4.5-2-6.8,2.6-6.9,2.8C67.2,39.3,66.9,39.4,66.7,39.4z"/>
</g>
</svg>
