<?xml version="1.0" encoding="utf-8"?>
<!-- Generator: Adobe Illustrator 20.1.0, SVG Export Plug-In . SVG Version: 6.00 Build 0)  -->
<svg version="1.1" id="圖層_1" xmlns="http://www.w3.org/2000/svg" xmlns:xlink="http://www.w3.org/1999/xlink" x="0px" y="0px"
	 viewBox="0 0 120 120" style="enable-background:new 0 0 120 120;" xml:space="preserve">
<style type="text/css">
	.st0{fill:#040000;}
	.st1{fill:#FFFFFF;}
</style>
<g>
	<path class="st0" d="M51.4,31.9c0,0-5.5-8.9-11-14.3s-10.1,5.2-10.1,12.6s0,13.8,0,13.8S39.5,32.6,51.4,31.9z"/>
	<path class="st1" d="M45.8,31.8l-6.3-7.7c0,0-3.8-6.6-4.9,3.4c-0.8,7.2,0,10.6,0,12C34.7,39.6,41.3,33.5,45.8,31.8z"/>
	<path class="st0" d="M69,32.8l7.8-11.9c0,0,7-9.2,11.7,1.1c4.7,10.3,1.8,26.5,1.8,26.5S81.9,35.1,69,32.8z"/>
	<path class="st1" d="M75,34.1l4.7-8.5c0,0,4.4-6.6,5.6,0.5c1.2,7.2,1.1,13.8,0.5,16.7C85.7,42.8,78.5,35.2,75,34.1z"/>
	<path class="st0" d="M59.3,96.6c-14.3,0-24.7-3.3-31-9.9c-5.3-5.5-7.8-13.4-7.4-23.5c0.4-9.1,4.8-17.4,12.7-24.1
		c6-5,11.8-7.3,12-7.4l0.2-0.1c13.5-3.2,25.2-1.5,34.9,5.2c11.7,8,17.2,21.5,18.4,30.5c0.9,6.5-0.9,12.5-5.1,17.4
		C87.1,92.4,74.9,96.6,59.3,96.6z M46.4,34.1c-1.4,0.6-22.2,9.5-23,29.2c-0.4,9.3,1.9,16.6,6.7,21.6c5.8,6.1,15.6,9.1,29.2,9.1
		c14.8,0,26.4-3.9,32.6-11c3.7-4.2,5.3-9.6,4.5-15.3c-1.1-8.5-6.3-21.2-17.3-28.7C70.2,32.7,59.2,31.1,46.4,34.1z"/>
	<g>
		<path class="st1" d="M50.6,95.1c-0.3-0.2-0.6-0.4-0.9-0.6c-2.2-2-1.6-4.8,0.6-5.9c1.1-0.6,2.2-0.6,3.4-0.3
			c1.3,0.4,2.4,1.2,3.4,2.1c1.5,1.4,2.4,3.2,3.1,5.1c0.1,0.3,0.2,0.6,0.3,0.9c0,0.1,0,0.1,0,0.2c-1,1.5-2.1,2.9-3.6,4
			c-1.3,1-2.7,1.6-4.3,1.8c-0.6,0.1-1.2,0.1-1.8,0c-1.5-0.3-3.1-1.7-3.1-3.7c0-1.1,0.5-1.9,1.2-2.6c0.5-0.5,1.1-0.8,1.8-1
			C50.5,95.1,50.6,95.1,50.6,95.1z"/>
		<path class="st0" d="M51.4,103.7c-0.4,0-0.7,0-1.1-0.1c-2-0.4-4.2-2.2-4.2-4.9c0-1.4,0.6-2.6,1.7-3.6c0.1-0.1,0.3-0.2,0.5-0.4
			c-0.9-1.1-1.3-2.4-1.1-3.7c0.2-1.5,1.1-2.9,2.6-3.7c1.4-0.7,2.8-0.9,4.4-0.3c1.4,0.5,2.7,1.3,3.9,2.4c1.4,1.4,2.6,3.2,3.4,5.6
			l0.1,0.1c0.1,0.3,0.2,0.6,0.3,1c0,0.4,0,0.7-0.2,1c-1.2,1.8-2.5,3.2-3.9,4.3c-1.5,1.1-3.2,1.8-4.9,2.1
			C52.2,103.7,51.8,103.7,51.4,103.7z M50.6,95.1l0.3,1.2c-0.6,0.2-1.1,0.4-1.4,0.7c-0.5,0.5-0.8,1-0.8,1.6c0,1.4,1.2,2.3,2.1,2.4
			c0.4,0.1,0.9,0.1,1.4,0c1.3-0.2,2.6-0.7,3.8-1.6c1.1-0.8,2.1-1.9,3.1-3.3c0,0,0-0.1,0-0.1L58.9,96c-0.7-2-1.6-3.4-2.8-4.6
			c-0.9-0.9-1.8-1.5-2.9-1.8c-0.9-0.3-1.6-0.2-2.3,0.2c-0.7,0.4-1.2,1-1.2,1.7c-0.1,0.7,0.2,1.5,0.9,2.1c0.2,0.2,0.4,0.3,0.7,0.5
			c0.4,0.3,0.7,0.8,0.6,1.3c-0.1,0.5-0.4,0.9-0.9,1.1L50.6,95.1z M59.1,96.5C59.1,96.5,59.1,96.5,59.1,96.5
			C59.1,96.5,59.1,96.5,59.1,96.5z M59.3,95.9C59.3,95.9,59.3,95.9,59.3,95.9C59.3,95.9,59.3,95.9,59.3,95.9z"/>
	</g>
	<g>
		<path class="st1" d="M71.4,95.5c0.3,0.1,0.6,0.3,0.9,0.4c2.5,1.4,2.4,4.2,0.7,5.7c-0.9,0.8-1.9,1.1-3.1,0.9
			c-1.3-0.1-2.5-0.6-3.6-1.3c-1.7-1.1-2.9-2.5-4-4.2c-0.2-0.2-0.3-0.5-0.4-0.8c0-0.1,0-0.1,0-0.2c0.6-1.6,1.4-3.2,2.6-4.5
			c1-1.2,2.3-2.1,3.7-2.6c0.6-0.2,1.1-0.4,1.7-0.4c1.5-0.1,3.3,1,3.7,2.8c0.2,1,0,1.9-0.6,2.7c-0.4,0.5-0.9,1-1.5,1.3
			C71.5,95.4,71.5,95.4,71.4,95.5z"/>
		<path class="st0" d="M70.4,103.8c-0.2,0-0.4,0-0.7,0c-1.4-0.2-2.8-0.6-4.2-1.5c-1.7-1-3.1-2.5-4.4-4.6l-0.1-0.1
			c-0.2-0.2-0.3-0.5-0.5-0.9c-0.1-0.3-0.1-0.7,0-1c0.8-2,1.7-3.6,2.8-4.9c1.2-1.4,2.7-2.4,4.2-3c0.8-0.3,1.5-0.4,2.1-0.5
			c2-0.1,4.4,1.3,5,3.8c0.3,1.3,0,2.6-0.9,3.8c-0.1,0.1-0.2,0.3-0.3,0.4c1,0.8,1.7,2,1.8,3.2c0.1,1.5-0.5,3-1.7,4
			C72.9,103.4,71.7,103.8,70.4,103.8z M63.3,96.1C63.3,96.1,63.3,96.2,63.3,96.1l0.1,0.2c1.1,1.7,2.2,2.9,3.6,3.8c1,0.6,2,1,3.1,1.1
			c0.9,0.1,1.5-0.1,2.2-0.6c0.6-0.5,0.9-1.2,0.8-1.8c-0.1-0.7-0.5-1.3-1.3-1.8c-0.2-0.1-0.4-0.2-0.7-0.3c-0.5-0.2-0.8-0.6-0.8-1.1
			c0-0.5,0.2-1,0.7-1.2l0.2-0.1c0.5-0.2,0.8-0.5,1.1-0.9c0.4-0.6,0.6-1.1,0.4-1.7c-0.3-1.3-1.6-1.8-2.4-1.8c-0.4,0-0.8,0.1-1.3,0.3
			c-1.2,0.5-2.3,1.2-3.2,2.3C64.6,93.4,63.9,94.6,63.3,96.1z M63.1,95.8C63.1,95.8,63.1,95.8,63.1,95.8
			C63.1,95.8,63.1,95.8,63.1,95.8z"/>
	</g>
	<circle class="st0" cx="46.4" cy="54.5" r="3.4"/>
	<circle class="st0" cx="73.6" cy="54.5" r="3.4"/>
	<ellipse class="st0" cx="60.6" cy="54.7" rx="3.7" ry="2.1"/>
	<path class="st0" d="M56.9,71.2c-0.7,0-1.3-0.6-1.3-1.2c0-0.7,0.5-1.3,1.2-1.3l0,0c1.3,0,2.5-0.5,2.5-0.7V54.7
		c0-0.7,0.6-1.3,1.3-1.3c0.7,0,1.3,0.6,1.3,1.3v13.2C61.9,70.3,59.2,71.2,56.9,71.2C56.9,71.2,56.9,71.2,56.9,71.2z"/>
	<path class="st0" d="M64.8,71.2c-2.5,0-5.4-0.9-5.4-3.3c0-0.7,0.6-1.3,1.3-1.3c0.7,0,1.3,0.6,1.3,1.3c0.1,0.3,1.6,0.7,2.9,0.7
		c0.7,0,1.3,0.6,1.3,1.3C66.1,70.7,65.5,71.2,64.8,71.2z"/>
	<path class="st0" d="M25.8,50.1c0,0,25,6,31.1-18.7C56.9,31.4,39.2,29.3,25.8,50.1z"/>
</g>
</svg>
