<?xml version="1.0" encoding="utf-8"?>
<!-- Generator: Adobe Illustrator 20.1.0, SVG Export Plug-In . SVG Version: 6.00 Build 0)  -->
<svg version="1.1" id="圖層_1" xmlns="http://www.w3.org/2000/svg" xmlns:xlink="http://www.w3.org/1999/xlink" x="0px" y="0px"
	 viewBox="0 0 120 120" style="enable-background:new 0 0 120 120;" xml:space="preserve">
<style type="text/css">
	.st0{fill:#040000;}
	.st1{fill:#FFFFFF;}
</style>
<g>
	<path class="st0" d="M51.5,43.1c0,0-5.5-8.9-11-14.3s-10.1,5.2-10.1,12.6s0,13.8,0,13.8S39.6,43.8,51.5,43.1z"/>
	<path class="st1" d="M46,43.1l-6.3-7.7c0,0-3.8-6.6-4.9,3.4c-0.8,7.2,0,10.6,0,12C34.8,50.9,41.5,44.8,46,43.1z"/>
	<path class="st0" d="M69.2,44.1l7.8-11.9c0,0,7-9.2,11.7,1.1c4.7,10.3,1.8,26.5,1.8,26.5S82.1,46.3,69.2,44.1z"/>
	<path class="st1" d="M75.1,45.3l4.7-8.5c0,0,4.4-6.6,5.6,0.5c1.2,7.2,1.1,13.8,0.5,16.7C85.8,54.1,78.6,46.4,75.1,45.3z"/>
	<path class="st0" d="M59.4,107.8c-14.3,0-24.7-3.3-31-9.9c-5.3-5.5-7.8-13.4-7.4-23.5c0.4-9.1,4.8-17.4,12.7-24.1
		c6-5,11.8-7.3,12-7.4l0.2-0.1c13.5-3.2,25.2-1.5,34.9,5.2c11.7,8,17.2,21.5,18.4,30.5C100,85.1,98.2,91.1,94,96
		C87.3,103.6,75,107.8,59.4,107.8z M46.6,45.4c-1.4,0.6-22.2,9.5-23,29.2c-0.4,9.3,1.9,16.6,6.7,21.6c5.8,6.1,15.6,9.1,29.2,9.1
		c14.8,0,26.4-3.9,32.6-11c3.7-4.2,5.3-9.6,4.5-15.3c-1.1-8.5-6.3-21.2-17.3-28.7C70.3,44,59.3,42.4,46.6,45.4z"/>
	<path class="st0" d="M25.2,75.9c-0.1,0-0.1,0-0.2,0l-8.1-1.3c-0.7-0.1-1.2-0.8-1.1-1.5c0.1-0.7,0.8-1.2,1.5-1.1l8.1,1.3
		c0.7,0.1,1.2,0.8,1.1,1.5C26.3,75.4,25.8,75.9,25.2,75.9z"/>
	<path class="st0" d="M17.1,81.9c-0.5,0-1-0.3-1.2-0.9c-0.2-0.7,0.1-1.4,0.8-1.6l10.5-3.4c0.7-0.2,1.4,0.1,1.6,0.8
		c0.2,0.7-0.1,1.4-0.8,1.6l-10.5,3.4C17.3,81.8,17.2,81.9,17.1,81.9z"/>
	<path class="st0" d="M94,77.6c-0.6,0-1.1-0.4-1.2-1c-0.2-0.7,0.2-1.4,0.9-1.6l9-2.3c0.7-0.2,1.4,0.2,1.6,0.9
		c0.2,0.7-0.2,1.4-0.9,1.6l-9,2.3C94.2,77.6,94.1,77.6,94,77.6z"/>
	<path class="st0" d="M102.9,81.9c-0.1,0-0.2,0-0.2,0l-9-1.7c-0.7-0.1-1.2-0.8-1-1.5c0.1-0.7,0.8-1.2,1.5-1l9,1.7
		c0.7,0.1,1.2,0.8,1,1.5C104.1,81.4,103.5,81.9,102.9,81.9z"/>
	<circle class="st0" cx="45.9" cy="64.6" r="2.9"/>
	<circle class="st0" cx="72" cy="64.6" r="2.9"/>
	<ellipse class="st0" cx="59.3" cy="64.2" rx="3.3" ry="2.5"/>
	<path class="st0" d="M55.9,81.6c-2.5,0-4.7-1.4-5-1.6c-0.6-0.4-0.8-1.2-0.4-1.8c0.4-0.6,1.2-0.8,1.8-0.4v0c0.7,0.5,2.9,1.5,4.4,1.1
		c0.6-0.2,1-0.5,1.3-1.1V64.6c0-0.7,0.6-1.3,1.3-1.3s1.3,0.6,1.3,1.3v13.6c0,0.2,0,0.4-0.1,0.6c-0.7,1.4-1.8,2.3-3.1,2.6
		C56.9,81.5,56.4,81.6,55.9,81.6z"/>
	<path class="st0" d="M63.2,81.7c-0.2,0-0.4,0-0.6,0c-1.7-0.2-3.2-1.1-4.4-2.7c-0.4-0.6-0.3-1.4,0.3-1.8c0.6-0.4,1.4-0.3,1.8,0.3
		c0.8,1.1,1.6,1.6,2.6,1.7c1.8,0.2,3.4-1.2,3.5-1.2c0.5-0.5,1.3-0.4,1.8,0.1c0.5,0.5,0.4,1.3-0.1,1.8C68,79.9,65.9,81.7,63.2,81.7z"
		/>
	<circle class="st0" cx="41.7" cy="80.9" r="1.4"/>
	<path class="st0" d="M59.5,26.2c-3.9,0-7-3.1-7-7s3.1-7,7-7s7,3.1,7,7S63.3,26.2,59.5,26.2z M59.5,16c-1.7,0-3.1,1.4-3.1,3.1
		c0,1.7,1.4,3.1,3.1,3.1s3.1-1.4,3.1-3.1C62.6,17.4,61.2,16,59.5,16z"/>
	<rect x="43.5" y="31.2" transform="matrix(0.2584 -0.966 0.966 0.2584 8.2584 75.6915)" class="st0" width="19.9" height="2.6"/>
	<rect x="65.4" y="22.3" transform="matrix(0.9451 -0.3269 0.3269 0.9451 -7.0466 23.594)" class="st0" width="2.6" height="20.9"/>
	
		<rect x="52.6" y="30.4" transform="matrix(0.9383 -0.3458 0.3458 0.9383 -7.3061 22.4488)" class="st0" width="13.3" height="2.6"/>
	
		<rect x="54.7" y="37.3" transform="matrix(0.8934 -0.4492 0.4492 0.8934 -10.8116 31.5236)" class="st0" width="12.6" height="2.6"/>
</g>
</svg>
