<?xml version="1.0" encoding="utf-8"?>
<!-- Generator: Adobe Illustrator 20.1.0, SVG Export Plug-In . SVG Version: 6.00 Build 0)  -->
<svg version="1.1" id="圖層_1" xmlns="http://www.w3.org/2000/svg" xmlns:xlink="http://www.w3.org/1999/xlink" x="0px" y="0px"
	 viewBox="0 0 120 120" style="enable-background:new 0 0 120 120;" xml:space="preserve">
<style type="text/css">
	.st0{fill:#040000;}
</style>
<g>
	<path class="st0" d="M57.8,101.7c-26,0-33.3-15.5-34.9-28.5c-1.7-14.8,3-23.1,3.5-24l2.4-5.1c0-1.5,0-8.3,2.1-18
		c1-4.5,3-7.1,5.8-7.7c3.2-0.7,6.5,1.6,7.8,3.4c1.5,2,4.6,7.9,5.8,10.4c4.9-1.4,16.8-0.9,20.3-0.7c0.7-1.1,2.2-3.3,5.3-7.5
		c1.7-2.2,3.6-3.4,5.7-3.5c2.9-0.1,5,2,5.1,2.1c0.1,0.1,0.1,0.1,0.2,0.2c4.5,7.6,3.5,19.4,3.3,21.9c1.1,2,5.9,11.6,7.2,25.9
		C98,77.5,95.8,84,91,89.3c-6.9,7.7-18.2,12.1-31.9,12.4C58.7,101.7,58.2,101.7,57.8,101.7z M28.6,50.5c-0.1,0.1-4.9,8.1-3.2,22.4
		c1.4,12.3,8.4,26.8,33.6,26.3c13-0.3,23.6-4.4,30.1-11.5c4.3-4.8,6.3-10.6,5.7-16.7c-1.4-15.2-7-25.2-7-25.3
		c-0.1-0.2-0.2-0.5-0.2-0.8c0-0.1,1.6-13-2.8-20.5c-0.3-0.3-1.5-1.3-3.1-1.2c-1.3,0.1-2.5,0.9-3.7,2.5c-4.3,5.7-5.5,7.8-5.5,7.8
		c-0.2,0.4-0.7,0.7-1.2,0.7c-6.8-0.4-18.5-0.6-20.9,0.8c-0.3,0.2-0.7,0.2-1,0.1c-0.3-0.1-0.6-0.3-0.8-0.6c0-0.1-4.5-8.7-6.1-11
		c-0.8-1-3.1-2.9-5.2-2.4c-2.2,0.5-3.3,3.4-3.9,5.8c-2.3,10.4-2.1,17.5-2.1,17.6c0,0.2,0,0.4-0.1,0.6l-2.6,5.4
		C28.7,50.4,28.6,50.4,28.6,50.5z M27.5,49.8L27.5,49.8L27.5,49.8z"/>
	<path class="st0" d="M36.7,42.4c-0.7,0-1.3-0.1-1.9-0.4c-1.5-0.7-3.1-2.4-2.4-7.2c0.3-3.1,1.5-10.2,4.8-10.9
		c2.4-0.5,4.1,2.4,4.6,3.4c4.6,8,3.4,10.2,1.4,12c-0.2,0.2-0.4,0.3-0.5,0.5C41.7,41,39.1,42.4,36.7,42.4z M37.7,26.5L37.7,26.5
		c-1,0.2-2.3,4.4-2.8,8.7c0,0,0,0,0,0.1c-0.2,1.4-0.4,3.9,0.9,4.4c1.5,0.7,4.3-0.8,4.8-1.4c0.3-0.3,0.5-0.6,0.8-0.8
		c1-0.9,2.1-1.9-1.9-8.8C38.3,26.6,37.7,26.5,37.7,26.5z M33.6,35.1L33.6,35.1L33.6,35.1z"/>
	<path class="st0" d="M83.5,43.8c-3.4,0-9-5.7-9.7-7.2c-1.3-2.5,2-6,3.1-7.1c0.8-0.9,3.2-3.5,5.7-2.5c4,1.7,3.5,12.1,3.4,14.2
		c-0.1,2-1.4,2.4-2,2.5C83.9,43.8,83.7,43.8,83.5,43.8z M81.4,29.4c-0.5,0-1.4,0.5-2.6,1.9c0,0,0,0-0.1,0.1C77,33,75.9,35,76.1,35.5
		c1,2.1,6.1,5.7,7.3,5.8c0,0,0-0.1,0-0.2c0.4-5.6-0.4-11.1-1.8-11.7C81.6,29.4,81.5,29.4,81.4,29.4z M77.8,30.4L77.8,30.4L77.8,30.4
		z"/>
	<path class="st0" d="M49.7,34.3c0,0,6.2,13.1,13.3,7.4s8.7-8.3,8.7-8.3S55.9,31.7,49.7,34.3z"/>
	<path class="st0" d="M24,62.9c0,0,0.4,0.1,1,0.2c1.9,0.5,6,2,7.3,5.2c1.8,4.3,6.1,11.7,1.1,13.3c-5,1.6-7.1,0.5-7.1,0.5
		S23.4,71.4,24,62.9z"/>
	<ellipse class="st0" cx="46.5" cy="55.5" rx="2.8" ry="2.3"/>
	<ellipse class="st0" cx="71.7" cy="55.5" rx="2.8" ry="2.3"/>
	<ellipse class="st0" cx="59.2" cy="55.9" rx="3.1" ry="1.9"/>
	<path class="st0" d="M55.6,74.3c-3,0-5.8-2.1-5.9-2.2c-0.6-0.4-0.7-1.2-0.3-1.8c0.4-0.6,1.2-0.7,1.8-0.3l0,0c0.7,0.6,3.1,1.9,5,1.6
		c0.7-0.1,1.3-0.4,1.7-1V57.8c0-0.7,0.6-1.3,1.3-1.3s1.3,0.6,1.3,1.3v13.3c0,0.3-0.1,0.5-0.2,0.7c-0.9,1.3-2.2,2.2-3.7,2.4
		C56.3,74.3,55.9,74.3,55.6,74.3z"/>
	<path class="st0" d="M62.1,74.3c-0.6,0-1.2-0.1-1.8-0.3c-1.1-0.4-1.9-1.2-2.3-2.4c-0.3-0.7,0.1-1.4,0.7-1.7
		c0.7-0.3,1.4,0.1,1.7,0.7c0.2,0.5,0.4,0.7,0.8,0.9c1.2,0.5,3.3-0.3,3.9-0.6c0.6-0.3,1.4-0.1,1.7,0.6c0.3,0.6,0.1,1.4-0.6,1.7
		C66,73.3,64.1,74.3,62.1,74.3z"/>
	<path class="st0" d="M59.2,82.2c-4.8,0-5.6-8.1-5.6-9c-0.1-0.7,0.5-1.3,1.2-1.4c0.7,0,1.3,0.5,1.4,1.2c0.2,2.1,1.2,6.7,3.1,6.7
		c0.3,0,0.6-0.1,0.8-0.4c1.1-1.1,1.3-4.4,1.2-6.2c0-0.7,0.5-1.3,1.2-1.4c0.7,0,1.3,0.5,1.4,1.2c0,0.6,0.3,5.8-1.9,8.1
		C61.1,81.8,60.2,82.2,59.2,82.2z"/>
	<circle class="st0" cx="86.8" cy="73" r="1.9"/>
</g>
</svg>
