<?xml version="1.0" encoding="utf-8"?>
<!-- Generator: Adobe Illustrator 20.1.0, SVG Export Plug-In . SVG Version: 6.00 Build 0)  -->
<svg version="1.1" id="圖層_1" xmlns="http://www.w3.org/2000/svg" xmlns:xlink="http://www.w3.org/1999/xlink" x="0px" y="0px"
	 viewBox="0 0 120 120" style="enable-background:new 0 0 120 120;" xml:space="preserve">
<style type="text/css">
	.st0{fill:#040000;}
	.st1{fill:#FFFFFF;}
</style>
<g>
	<path class="st0" d="M22.5,73.4c0,0,19.4,6.8,25.5,0s5.3-11.3,7.2-12c1.9-0.6,8-5.3,10.7,5.1C68.7,77,87.1,81.3,97.6,77.1
		c0,0-1.9-17.3-20.5-29.6s-32.7-2.1-32.7-2.1S23.7,55.6,22.5,73.4z"/>
	<path class="st0" d="M25.2,81.7c-0.1,0-0.1,0-0.2,0l-8.1-1.3c-0.7-0.1-1.2-0.8-1.1-1.5c0.1-0.7,0.8-1.2,1.5-1.1l8.1,1.3
		c0.7,0.1,1.2,0.8,1.1,1.5C26.3,81.3,25.8,81.7,25.2,81.7z"/>
	<path class="st0" d="M17.1,87.7c-0.5,0-1-0.3-1.2-0.9c-0.2-0.7,0.1-1.4,0.8-1.6l10.5-3.4c0.7-0.2,1.4,0.1,1.6,0.8
		c0.2,0.7-0.1,1.4-0.8,1.6l-10.5,3.4C17.3,87.7,17.2,87.7,17.1,87.7z"/>
	<path class="st0" d="M94,83.4c-0.6,0-1.1-0.4-1.2-1c-0.2-0.7,0.2-1.4,0.9-1.6l9-2.3c0.7-0.2,1.4,0.2,1.6,0.9
		c0.2,0.7-0.2,1.4-0.9,1.6l-9,2.3C94.2,83.4,94.1,83.4,94,83.4z"/>
	<path class="st0" d="M102.9,87.7c-0.1,0-0.2,0-0.2,0l-9-1.7c-0.7-0.1-1.2-0.8-1-1.5c0.1-0.7,0.8-1.1,1.5-1l9,1.7
		c0.7,0.1,1.2,0.8,1,1.5C104.1,87.3,103.5,87.7,102.9,87.7z"/>
	<path class="st0" d="M56.3,82.4c-2.2,0-4.2-0.6-4.6-0.7c-0.7-0.2-1.1-0.9-0.8-1.6c0.2-0.7,0.9-1.1,1.6-0.8c1.4,0.4,4.8,1,6,0.1
		c0.2-0.2,0.5-0.5,0.5-1.2V65.7c0-0.7,0.6-1.3,1.3-1.3s1.3,0.6,1.3,1.3v12.4c0,1.8-0.8,2.8-1.6,3.3C59,82.1,57.6,82.4,56.3,82.4z"/>
	<path class="st0" d="M63.6,82.9c-0.6,0-1.1-0.1-1.7-0.3c-1.5-0.6-2.5-2.1-2.9-4.3c-0.1-0.7,0.4-1.4,1.1-1.5
		c0.7-0.1,1.4,0.4,1.5,1.1c0.2,1.3,0.7,2.1,1.3,2.4c1.4,0.6,3.9-0.9,4.7-1.5c0.6-0.4,1.4-0.3,1.8,0.3c0.4,0.6,0.3,1.4-0.3,1.8
		C68.8,81.1,66.2,82.9,63.6,82.9z"/>
	<path class="st0" d="M51.7,43.7c0,0-5.5-8.9-11-14.3s-10.1,5.2-10.1,12.6s0,13.8,0,13.8S39.8,44.4,51.7,43.7z"/>
	<path class="st1" d="M46.1,43.7L39.8,36c0,0-3.8-6.6-4.9,3.4c-0.8,7.2,0,10.6,0,12C34.9,51.5,41.6,45.4,46.1,43.7z"/>
	<path class="st0" d="M69.3,44.7l7.8-11.9c0,0,7-9.2,11.7,1.1c4.7,10.3,1.8,26.5,1.8,26.5S82.2,46.9,69.3,44.7z"/>
	<path class="st1" d="M75.3,45.9l4.7-8.5c0,0,4.4-6.6,5.6,0.5s1.1,13.8,0.5,16.7C86,54.7,78.8,47,75.3,45.9z"/>
	<path class="st0" d="M59.6,108.4c-14.3,0-24.7-3.3-31-9.9C23.2,93,20.7,85.1,21.1,75c0.4-9.1,4.8-17.4,12.7-24.1
		c6-5,11.8-7.3,12-7.4l0.2-0.1c13.5-3.2,25.2-1.5,34.9,5.2c11.7,8,17.2,21.5,18.4,30.5c0.9,6.5-0.9,12.5-5.1,17.4
		C87.4,104.2,75.2,108.4,59.6,108.4z M46.7,46c-1.4,0.6-22.2,9.5-23,29.2c-0.4,9.3,1.9,16.6,6.7,21.6c5.8,6.1,15.6,9.1,29.2,9.1
		c14.8,0,26.4-3.9,32.6-11c3.7-4.3,5.3-9.6,4.5-15.3c-1.1-8.5-6.3-21.2-17.3-28.7C70.5,44.6,59.4,43,46.7,46z"/>
	<g>
		<path class="st1" d="M52.1,40.7l-4.7,2.5c0,0,11.1,4.5,24.8,0.7L68,40.7C68,40.7,57.3,42.6,52.1,40.7z"/>
		<path class="st0" d="M60.8,46.7c-8,0-13.5-2.2-13.9-2.3c-0.5-0.2-0.8-0.6-0.8-1.1s0.2-1,0.7-1.2l4.7-2.5c0.3-0.2,0.7-0.2,1.1-0.1
			c4.8,1.8,15.1,0,15.2-0.1c0.4-0.1,0.7,0,1,0.2l4.2,3.2c0.4,0.3,0.6,0.8,0.5,1.3s-0.4,0.9-0.9,1C68.3,46.3,64.3,46.7,60.8,46.7z
			 M50.7,42.9c3.7,0.9,10.6,2,18.6,0.4l-1.6-1.2c-2.3,0.4-10.5,1.5-15.5,0L50.7,42.9z"/>
	</g>
	<path class="st0" d="M67.2,42c-0.7,0-1.3-0.6-1.3-1.3v-6.6c0-2.7-2.2-4.8-4.8-4.8h-2c-2.7,0-4.8,2.2-4.8,4.8v6.6
		c0,0.7-0.6,1.3-1.3,1.3s-1.3-0.6-1.3-1.3v-6.6c0-4.1,3.3-7.4,7.4-7.4h2c4.1,0,7.4,3.3,7.4,7.4v6.6C68.5,41.4,67.9,42,67.2,42z"/>
	<path class="st0" d="M59.7,39.3c-4.3,0-7-1-7.2-1c-0.7-0.3-1-1-0.7-1.7c0.3-0.7,1-1,1.7-0.7c0.1,0,5.5,2,13.4,0
		c0.7-0.2,1.4,0.2,1.6,0.9c0.2,0.7-0.2,1.4-0.9,1.6C64.6,39.1,61.9,39.3,59.7,39.3z"/>
	<path class="st0" d="M60.3,29.3c-0.2,0-0.4,0-0.5-0.1c-0.6-0.3-0.9-1.1-0.6-1.7c1.5-3.3-0.5-8.1-0.5-8.2c-0.3-0.6,0-1.4,0.7-1.7
		c0.6-0.3,1.4,0,1.7,0.7c0.1,0.2,2.5,5.9,0.5,10.3C61.2,29,60.8,29.3,60.3,29.3z"/>
	<path class="st0" d="M57.7,14.5c0-0.2,0-0.5,0-0.7c0.2-1.9,1.9-2.6,3.3-2c0.7,0.3,1.2,0.9,1.4,1.6c0.3,0.8,0.3,1.7,0.2,2.5
		c-0.2,1.3-0.7,2.5-1.4,3.6c-0.1,0.2-0.2,0.3-0.3,0.5c0,0-0.1,0-0.1,0c-1.2,0.1-2.3,0-3.4-0.3c-1-0.3-1.9-0.8-2.6-1.5
		c-0.3-0.3-0.5-0.6-0.7-0.9c-0.4-0.9-0.3-2.3,0.7-3c0.5-0.4,1.2-0.5,1.8-0.4C56.8,14,57.2,14.2,57.7,14.5
		C57.6,14.5,57.6,14.5,57.7,14.5z"/>
	<g>
		<circle class="st1" cx="60.3" cy="64.1" r="3.2"/>
		<path class="st0" d="M60.3,68.6c-2.5,0-4.5-2-4.5-4.5s2-4.5,4.5-4.5c2.5,0,4.5,2,4.5,4.5S62.8,68.6,60.3,68.6z M60.3,62.2
			c-1.1,0-1.9,0.9-1.9,1.9c0,1.1,0.9,1.9,1.9,1.9c1.1,0,1.9-0.9,1.9-1.9C62.2,63.1,61.4,62.2,60.3,62.2z"/>
	</g>
	<circle class="st1" cx="45.2" cy="65.4" r="4.9"/>
	<circle class="st0" cx="45.2" cy="65.4" r="3.9"/>
	<circle class="st1" cx="73.2" cy="65.4" r="4.9"/>
	<circle class="st0" cx="73.2" cy="65.4" r="3.9"/>
</g>
</svg>
