<?xml version="1.0" encoding="utf-8"?>
<!-- Generator: Adobe Illustrator 20.1.0, SVG Export Plug-In . SVG Version: 6.00 Build 0)  -->
<svg version="1.1" id="圖層_1" xmlns="http://www.w3.org/2000/svg" xmlns:xlink="http://www.w3.org/1999/xlink" x="0px" y="0px"
	 viewBox="0 0 120 120" style="enable-background:new 0 0 120 120;" xml:space="preserve">
<style type="text/css">
	.st0{fill:#040000;}
	.st1{fill:#FFFFFF;}
</style>
<g>
	<path class="st0" d="M38,42.8c-0.7,0-1.3-0.1-1.9-0.4c-1.5-0.7-3.1-2.4-2.4-7.2c0.3-3.1,1.5-10.2,4.8-10.9c2.4-0.5,4.1,2.4,4.6,3.4
		c4.6,8,3.4,10.2,1.4,12c-0.2,0.2-0.4,0.3-0.5,0.5C43,41.4,40.4,42.8,38,42.8z M38.9,26.9L38.9,26.9c-1,0.2-2.3,4.4-2.8,8.7
		c0,0,0,0,0,0.1c-0.2,1.4-0.4,3.9,0.9,4.4c1.5,0.7,4.3-0.8,4.8-1.4c0.3-0.3,0.5-0.6,0.8-0.8c1-0.9,2.1-1.9-1.9-8.8
		C39.6,26.9,39,26.9,38.9,26.9z M34.9,35.5L34.9,35.5L34.9,35.5z"/>
	<path class="st0" d="M68.9,33.6l7.8-11.9c0,0,7-9.2,11.7,1.1s1.8,26.5,1.8,26.5S81.8,35.8,68.9,33.6z"/>
	<path class="st1" d="M74.8,34.8l4.7-8.5c0,0,4.4-6.6,5.6,0.5c1.2,7.2,1.1,13.8,0.5,16.7C85.6,43.5,78.4,35.9,74.8,34.8z"/>
	<path class="st0" d="M69.5,33c0,0,7.4,14.2,20.9,12.7C90.4,45.7,79.3,33.8,69.5,33z"/>
	<path class="st0" d="M57.8,102.1c-26,0-33.3-15.5-34.9-28.5c-1.7-14.8,3-23.1,3.5-24l2.4-5.1c0-1.5,0-8.3,2.1-18
		c1-4.5,3-7.1,5.8-7.7c3.2-0.7,6.5,1.6,7.8,3.4c1.5,2,4.6,7.9,5.8,10.4c4.9-1.4,16.8-0.9,20.3-0.7c0.7-1.1,2.2-3.3,5.3-7.5
		c1.7-2.2,3.6-3.4,5.7-3.5c2.9-0.1,5,2,5.1,2.1c0.1,0.1,0.1,0.1,0.2,0.2c4.5,7.6,3.5,19.4,3.3,21.9c1.1,2,5.9,11.6,7.2,25.9
		c0.6,6.9-1.6,13.3-6.3,18.7c-6.9,7.7-18.2,12.1-31.9,12.4C58.7,102.1,58.2,102.1,57.8,102.1z M28.6,50.9c-0.1,0.1-4.9,8.1-3.2,22.4
		c1.4,12.3,8.4,26.8,33.6,26.3c13-0.3,23.6-4.4,30.1-11.5c4.3-4.8,6.3-10.6,5.7-16.7c-1.4-15.2-7-25.2-7-25.3
		c-0.1-0.2-0.2-0.5-0.2-0.8c0-0.1,1.6-13-2.8-20.5c-0.3-0.3-1.5-1.3-3.1-1.2c-1.3,0.1-2.5,0.9-3.7,2.5c-4.3,5.7-5.5,7.8-5.5,7.8
		c-0.2,0.4-0.7,0.7-1.2,0.7c-6.8-0.4-18.5-0.6-20.9,0.8c-0.3,0.2-0.7,0.2-1,0.1c-0.3-0.1-0.6-0.3-0.8-0.6c0-0.1-4.5-8.7-6.1-11
		c-0.8-1-3.1-2.9-5.2-2.4c-2.2,0.5-3.3,3.4-3.9,5.8c-2.3,10.4-2.1,17.5-2.1,17.6c0,0.2,0,0.4-0.1,0.6l-2.6,5.4
		C28.7,50.8,28.6,50.8,28.6,50.9z M27.5,50.2L27.5,50.2L27.5,50.2z"/>
	<path class="st0" d="M43.4,69.1c-6.9,0-12.5-5-12.5-11.2s5.6-11.2,12.5-11.2s12.5,5,12.5,11.2S50.3,69.1,43.4,69.1z M43.4,49.3
		c-5.5,0-9.9,3.9-9.9,8.6s4.5,8.6,9.9,8.6s9.9-3.9,9.9-8.6S48.9,49.3,43.4,49.3z"/>
	<path class="st0" d="M77.1,69.1c-6.9,0-12.5-5-12.5-11.2s5.6-11.2,12.5-11.2s12.5,5,12.5,11.2S84,69.1,77.1,69.1z M77.1,49.3
		c-5.5,0-9.9,3.9-9.9,8.6s4.5,8.6,9.9,8.6s9.9-3.9,9.9-8.6S82.6,49.3,77.1,49.3z"/>
	<path class="st0" d="M32.8,54.1c-0.4,0-0.7-0.1-1.1-0.2L28,52.1c-1.3-0.6-1.8-2.1-1.2-3.4c0.6-1.3,2.1-1.8,3.4-1.2l3.8,1.8
		c1.3,0.6,1.8,2.1,1.2,3.4C34.7,53.5,33.8,54.1,32.8,54.1z"/>
	<path class="st0" d="M88.4,55.2c-1,0-2-0.6-2.4-1.6c-0.5-1.3,0.1-2.8,1.4-3.3l1.4-0.5c1.3-0.5,2.8,0.1,3.3,1.4
		c0.5,1.3-0.1,2.8-1.4,3.3L89.3,55C89,55.1,88.7,55.2,88.4,55.2z"/>
	<path class="st0" d="M64.8,56.3c-0.4,0-0.8-0.1-1.2-0.3c-3.1-1.6-6-0.7-7.5,0c-1.3,0.6-2.8,0-3.4-1.3c-0.6-1.3,0-2.8,1.3-3.4
		c2.3-1.1,6.9-2.4,11.9,0.1c1.3,0.6,1.8,2.2,1.1,3.4C66.7,55.8,65.8,56.3,64.8,56.3z"/>
	<circle class="st0" cx="46.7" cy="55.6" r="2.5"/>
	<circle class="st0" cx="73.3" cy="55.6" r="2.5"/>
	<path class="st0" d="M55.9,71.5c-0.3,0-0.7-0.1-0.9-0.4c-0.5-0.5-0.5-1.3,0-1.8l3.7-3.6l-0.3-13.1c0-0.7,0.5-1.3,1.3-1.3
		c0.7,0,1.3,0.5,1.3,1.3l0.3,13.6c0,0.4-0.1,0.7-0.4,0.9l-4.1,4C56.5,71.4,56.2,71.5,55.9,71.5z"/>
	<path class="st0" d="M64.1,71.5c-0.3,0-0.7-0.1-0.9-0.4l-4.1-4c-0.5-0.5-0.5-1.3,0-1.8c0.5-0.5,1.3-0.5,1.8,0l4.1,4
		c0.5,0.5,0.5,1.3,0,1.8C64.7,71.4,64.4,71.5,64.1,71.5z"/>
</g>
</svg>
