<?xml version="1.0" encoding="utf-8"?>
<!-- Generator: Adobe Illustrator 20.1.0, SVG Export Plug-In . SVG Version: 6.00 Build 0)  -->
<svg version="1.1" id="圖層_1" xmlns="http://www.w3.org/2000/svg" xmlns:xlink="http://www.w3.org/1999/xlink" x="0px" y="0px"
	 viewBox="0 0 20 20" style="enable-background:new 0 0 20 20;" xml:space="preserve">
<style type="text/css">
	.st0{fill:#040000;}
</style>
<path class="st0" d="M10.2,18.4l-4.8-4.8c0,0-0.1-0.1-0.1-0.1l0,0l-0.4-0.4C3.6,11.8,3,10.1,3,8.3c0-4,3.2-7.2,7.2-7.2
	c3.9,0,7.2,3.2,7.2,7.2c0,2.1-0.9,4-2.4,5.4L10.2,18.4z M5,12.7l0.2,0.2c0.2,0.2,0.3,0.3,0.5,0.5l4.5,4.5l4.4-4.4
	c1.5-1.3,2.3-3.1,2.3-5c0-3.7-3-6.7-6.7-6.7s-6.7,3-6.7,6.7C3.4,9.9,4,11.4,5,12.7z"/>
<path class="st0" d="M10.2,12.2c-2.1,0-3.8-1.7-3.8-3.8s1.7-3.8,3.8-3.8S14,6.3,14,8.4S12.3,12.2,10.2,12.2z M10.2,5
	C8.3,5,6.8,6.5,6.8,8.4c0,1.9,1.5,3.4,3.4,3.4c1.9,0,3.4-1.5,3.4-3.4C13.5,6.5,12,5,10.2,5z"/>
</svg>
