<?xml version="1.0" encoding="utf-8"?>
<!-- Generator: Adobe Illustrator 20.1.0, SVG Export Plug-In . SVG Version: 6.00 Build 0)  -->
<svg version="1.1" id="圖層_1" xmlns="http://www.w3.org/2000/svg" xmlns:xlink="http://www.w3.org/1999/xlink" x="0px" y="0px"
	 viewBox="0 0 20 20" style="enable-background:new 0 0 20 20;" xml:space="preserve">
<style type="text/css">
	.st0{fill:#040000;}
</style>
<g>
	<path class="st0" d="M14.1,9.5H5.9c-0.1,0-0.1,0-0.1-0.1c0,0-0.1-0.1-0.1-0.1l0.2-8.5c0-0.1,0.1-0.2,0.2-0.2h7.7
		c0.1,0,0.2,0.1,0.2,0.2l0.2,8.5c0,0.1,0,0.1-0.1,0.1C14.2,9.5,14.1,9.5,14.1,9.5z M6.1,9.1h7.7L13.7,1H6.3L6.1,9.1z"/>
	<path class="st0" d="M14.7,10.8H5.3c-0.1,0-0.1,0-0.2-0.1c0-0.1,0-0.1,0-0.2l0.7-1.3c0-0.1,0.1-0.1,0.2-0.1h8.1
		c0.1,0,0.1,0,0.2,0.1l0.7,1.3c0,0.1,0,0.1,0,0.2C14.9,10.7,14.8,10.8,14.7,10.8z M5.6,10.4h8.8l-0.5-0.9H6.1L5.6,10.4z"/>
	<path class="st0" d="M14.7,12.2H5.3c-0.1,0-0.2-0.1-0.2-0.2v-1.4c0-0.1,0.1-0.2,0.2-0.2h9.5c0.1,0,0.2,0.1,0.2,0.2V12
		C14.9,12.1,14.9,12.2,14.7,12.2z M5.5,11.8h9.1v-1H5.5V11.8z"/>
	<g>
		<path class="st0" d="M6.8,19.4H5.8c-0.1,0-0.2-0.1-0.2-0.2V12c0-0.1,0.1-0.2,0.2-0.2h0.9C6.9,11.8,7,11.9,7,12v7.2
			C7,19.3,6.9,19.4,6.8,19.4z M6,19h0.5v-6.8H6V19z"/>
		<path class="st0" d="M14.2,19.4h-0.9c-0.1,0-0.2-0.1-0.2-0.2V12c0-0.1,0.1-0.2,0.2-0.2h0.9c0.1,0,0.2,0.1,0.2,0.2v7.2
			C14.4,19.3,14.3,19.4,14.2,19.4z M13.4,19H14v-6.8h-0.5V19z"/>
	</g>
</g>
</svg>
